<?xml version="1.0" encoding="iso-8859-1"?>
<!-- Generator: Adobe Illustrator 17.1.0, SVG Export Plug-In . SVG Version: 6.00 Build 0)  -->
<!DOCTYPE svg PUBLIC "-//W3C//DTD SVG 1.1//EN" "http://www.w3.org/Graphics/SVG/1.1/DTD/svg11.dtd">
<svg version="1.1" id="Capa_1" xmlns="http://www.w3.org/2000/svg" xmlns:xlink="http://www.w3.org/1999/xlink" x="0px" y="0px"
	 viewBox="0 0 294.882 294.882" style="enable-background:new 0 0 294.882 294.882;" xml:space="preserve">
<path d="M219.653,131.687c1.115,4.275-1.446,8.646-5.722,9.761c-0.677,0.176-1.356,0.261-2.025,0.261
	c-3.553,0-6.796-2.384-7.735-5.982c-10.783-41.335-36.762-76.256-56.729-76.256c-4.418,0-8-3.582-8-8s3.582-8,8-8
	C179.396,43.47,208.496,88.921,219.653,131.687z M270.954,182.512c0,32.354-9.728,59.608-28.131,78.816
	c-21.332,22.265-53.423,33.554-95.381,33.554c-41.959,0-74.05-11.289-95.383-33.554c-18.403-19.208-28.131-46.463-28.131-78.816
	c0-39.067,14.378-84.422,38.462-121.323C87.77,22.302,118.77,0,147.442,0s59.671,22.302,85.05,61.188
	C256.576,98.09,270.954,143.445,270.954,182.512z M254.954,182.512C254.954,106.259,196.676,16,147.442,16
	C98.207,16,39.928,106.259,39.928,182.512c0,28.148,8.189,51.575,23.685,67.747c18.197,18.993,46.401,28.623,83.829,28.623
	c37.427,0,65.631-9.63,83.828-28.623C246.764,234.087,254.954,210.66,254.954,182.512z"/>
<g>
</g>
<g>
</g>
<g>
</g>
<g>
</g>
<g>
</g>
<g>
</g>
<g>
</g>
<g>
</g>
<g>
</g>
<g>
</g>
<g>
</g>
<g>
</g>
<g>
</g>
<g>
</g>
<g>
</g>
</svg>
